<?xml version="1.0" encoding="UTF-8" standalone="no"?>
<!-- Created with Inkscape (http://www.inkscape.org/) -->

<svg
   width="500"
   height="500"
   viewBox="0 0 132.29166 132.29166"
   version="1.1"
   id="svg1"
   xml:space="preserve"
   inkscape:version="1.4 (e7c3feb100, 2024-10-09)"
   sodipodi:docname="ytaf.svg"
   xmlns:inkscape="http://www.inkscape.org/namespaces/inkscape"
   xmlns:sodipodi="http://sodipodi.sourceforge.net/DTD/sodipodi-0.dtd"
   xmlns="http://www.w3.org/2000/svg"
   xmlns:svg="http://www.w3.org/2000/svg"><sodipodi:namedview
     id="namedview1"
     pagecolor="#505050"
     bordercolor="#ffffff"
     borderopacity="1"
     inkscape:showpageshadow="0"
     inkscape:pageopacity="0"
     inkscape:pagecheckerboard="1"
     inkscape:deskcolor="#505050"
     inkscape:document-units="px"
     inkscape:zoom="1.6131576"
     inkscape:cx="245.79123"
     inkscape:cy="207.9772"
     inkscape:window-width="1910"
     inkscape:window-height="1129"
     inkscape:window-x="5"
     inkscape:window-y="25"
     inkscape:window-maximized="1"
     inkscape:current-layer="g41"
     showguides="false" /><defs
     id="defs1"><inkscape:path-effect
       effect="spiro"
       id="path-effect8"
       is_visible="true"
       lpeversion="1" /><inkscape:path-effect
       effect="simplify"
       id="path-effect7"
       is_visible="true"
       lpeversion="1.3"
       threshold="17.241379"
       steps="1"
       smooth_angles="360"
       helper_size="0"
       simplify_individual_paths="false"
       simplify_just_coalesce="false" /><clipPath
       clipPathUnits="userSpaceOnUse"
       id="clipPath4"><g
         inkscape:label="Clip"
         id="use4"><text
           xml:space="preserve"
           style="font-size:53.8614px;text-align:start;writing-mode:lr-tb;direction:ltr;text-anchor:start;fill:#ffffff;fill-opacity:1;stroke:#ffffff;stroke-width:0;stroke-linecap:butt;stroke-linejoin:miter;stroke-miterlimit:4;stroke-dasharray:none;stroke-dashoffset:0;stroke-opacity:0"
           x="40.687122"
           y="89.416748"
           id="text5"
           inkscape:label="text1"
           transform="scale(1.1010131,0.9082544)"><tspan
             sodipodi:role="line"
             id="tspan5"
             style="fill:#ffffff;fill-opacity:1;stroke:#ffffff;stroke-width:0;stroke-dasharray:none;stroke-opacity:0"
             x="40.687122"
             y="89.416748">♫</tspan></text></g></clipPath></defs><g
     inkscape:groupmode="layer"
     id="layer3"
     inkscape:label="page"
     inkscape:highlight-color="#7d35f3"
     transform="translate(0.87339393,10.413577)"><g
       inkscape:groupmode="layer"
       id="layer2"
       inkscape:label="Grab Outline FULL"
       inkscape:highlight-color="#f33535"
       style="display:none"><path
         style="fill:none;fill-opacity:1;fill-rule:nonzero;stroke:#000000;stroke-width:2.06375;stroke-linecap:round;stroke-linejoin:miter;stroke-miterlimit:4;stroke-dasharray:none;stroke-dashoffset:0;stroke-opacity:1"
         d="m 117.13644,44.99895 c 0,0 -6.03059,8.577763 -10.66985,9.04618 -5.83553,0.589202 -13.227877,-3.028122 -15.424898,-8.466295 -1.758838,-4.353562 0.924265,-10.065272 4.175159,-13.453295 3.762326,-3.921029 10.008259,-4.511168 15.356969,-5.470802 2.45777,-0.440961 5.31696,-1.325342 7.49044,-0.09608 5.33846,3.019293 9.64733,9.766796 9.27813,15.888806 -0.42355,7.023263 -12.75743,16.816616 -12.75743,16.816616"
         id="path11"
         sodipodi:nodetypes="caaaaaac" /><path
         style="fill:none;fill-opacity:1;fill-rule:nonzero;stroke:#000000;stroke-width:2.06375;stroke-linecap:round;stroke-linejoin:miter;stroke-miterlimit:4;stroke-dasharray:none;stroke-dashoffset:0;stroke-opacity:1"
         d="m 48.47825,11.365714 c 0,0 1.919314,18.947763 9.090807,23.036148 4.9942,2.847136 13.67808,1.945911 17.029672,-2.724747 C 78.419007,26.353314 72.827176,18.671836 71.325654,12.293528 70.168297,7.3771968 71.163691,0.53295727 66.918543,-2.2035568 61.675087,-5.5836018 52.353446,-4.5627406 48.362275,0.23195335 44.548304,4.8137729 49.290087,18.092361 49.290087,18.092361"
         id="path12"
         sodipodi:nodetypes="caaaaac" /><path
         style="fill:none;fill-opacity:1;fill-rule:nonzero;stroke:#000000;stroke-width:2.06375;stroke-linecap:round;stroke-linejoin:miter;stroke-miterlimit:4;stroke-dasharray:none;stroke-dashoffset:0;stroke-opacity:1"
         d="m 21.339708,38.73621 c 0,0 4.038556,1.642144 6.098724,2.351087 5.367611,1.847097 10.884394,6.668487 16.29443,4.949615 4.083536,-1.297418 8.259498,-5.881164 7.887414,-10.149666 -0.397013,-4.554489 -6.255739,-6.836092 -10.162735,-9.210197 -2.937426,-1.784941 -6.465939,-2.336881 -9.665862,-3.591862 -3.842129,-1.506848 -7.32531,-5.000115 -11.443307,-4.726904 -3.166752,0.210101 -6.521248,2.099345 -8.242587,4.765701 -2.7019823,4.185375 -3.7694353,10.440416 -1.491212,14.87074 2.314397,4.500671 13.168888,7.555967 13.168888,7.555967"
         id="path13"
         sodipodi:nodetypes="caaaaaaaac" /><path
         style="fill:none;fill-opacity:1;fill-rule:nonzero;stroke:#000000;stroke-width:2.06375;stroke-linecap:round;stroke-linejoin:miter;stroke-miterlimit:4;stroke-dasharray:none;stroke-dashoffset:0;stroke-opacity:1"
         d="m 14.008451,100.02476 c -0.580305,4.15812 3.000794,9.18078 6.994984,10.47428 5.133617,1.66251 10.821348,-2.4488 15.17546,-5.63622 3.222863,-2.35929 7.140842,-5.459491 7.371054,-9.446985 0.177954,-3.082333 -2.003075,-6.64489 -4.819569,-7.909726 -3.927665,-1.763842 -8.817656,0.462706 -12.709394,2.304463 -4.750856,2.248333 -11.28605,5.00863 -12.012535,10.214188 z"
         id="path15"
         sodipodi:nodetypes="aaaaaaa" /><path
         style="fill:none;fill-opacity:1;fill-rule:nonzero;stroke:#000000;stroke-width:2.06375;stroke-linecap:round;stroke-linejoin:miter;stroke-miterlimit:4;stroke-dasharray:none;stroke-dashoffset:0;stroke-opacity:1"
         d="m 14.574971,74.887672 c 0,0 4.377266,-1.264089 6.870765,-1.612018 2.493498,-0.34793 11.155681,3.886959 14.685533,3.705425 8.444767,-0.434298 12.842694,-8.537114 6.043737,-17.689564 C 40.66731,57.261923 31.281972,56.65458 25.144918,56.917115 14.147771,57.387558 12.472305,54.160176 6.9462372,56.803137 1.1534954,59.57364 3.3811006,69.775042 4.8887976,74.35612 c 1.507697,4.581077 16.9051614,2.428974 16.9051614,2.428974"
         id="path16"
         sodipodi:nodetypes="cssssssc" /></g><g
       inkscape:groupmode="layer"
       id="g36"
       inkscape:label="Grab Fill"
       inkscape:highlight-color="#f33535"
       style="display:inline;fill:#ffffff;stroke:none;stroke-opacity:1;fill-opacity:1;stroke-width:1.00012495;stroke-dasharray:none"><path
         style="fill:#ffffff;fill-opacity:1;fill-rule:nonzero;stroke:none;stroke-width:1.00012;stroke-dasharray:none;stroke-opacity:1"
         d="m 106.46659,54.04513 c -5.83553,0.589202 -13.227877,-3.028122 -15.424898,-8.466295 -1.758838,-4.353562 0.924265,-10.065272 4.175159,-13.453295 3.762326,-3.921029 10.008259,-4.511168 15.356969,-5.470802 2.45777,-0.440961 5.31696,-1.325342 7.49044,-0.09608 5.33846,3.019293 9.64733,9.766796 9.27813,15.888806 -0.42355,7.023263 -12.75743,16.816616 -12.75743,16.816616"
         id="path32"
         sodipodi:nodetypes="caaaaac" /><path
         style="fill:#ffffff;fill-opacity:1;fill-rule:nonzero;stroke:none;stroke-width:1.00012;stroke-dasharray:none;stroke-opacity:1"
         d="m 55.597454,35.329675 c 4.9942,2.847136 15.323363,1.645724 19.001275,-3.65256 C 78.335345,26.294264 72.827176,18.671836 71.325654,12.293528 70.168297,7.3771968 71.163691,0.53295727 66.918543,-2.2035568 61.675087,-5.5836018 52.353446,-4.5627406 48.362275,0.23195335 44.548304,4.8137729 49.290087,18.092361 49.290087,18.092361"
         id="path33"
         sodipodi:nodetypes="caaaac" /><path
         style="fill:#ffffff;fill-opacity:1;fill-rule:nonzero;stroke:none;stroke-width:1.00012;stroke-dasharray:none;stroke-opacity:1"
         d="m 43.732862,46.036912 c 4.083536,-1.297418 8.259498,-5.881164 7.887414,-10.149666 -0.397013,-4.554489 -6.255739,-6.836092 -10.162735,-9.210197 -2.937426,-1.784941 -6.465939,-2.336881 -9.665862,-3.591862 -3.842129,-1.506848 -7.32531,-5.000115 -11.443307,-4.726904 -3.166752,0.210101 -6.521248,2.099345 -8.242587,4.765701 -2.7019823,4.185375 -3.7694353,10.440416 -1.491212,14.87074 2.314397,4.500671 13.168888,7.555967 13.168888,7.555967"
         id="path34"
         sodipodi:nodetypes="caaaaaac" /><path
         style="fill:#ffffff;fill-opacity:1;fill-rule:nonzero;stroke:none;stroke-width:1.00012;stroke-dasharray:none;stroke-opacity:1"
         d="M 36.131269,76.981079 C 44.576036,76.546781 48.973963,68.443965 42.175006,59.291515 40.66731,57.261923 31.281972,56.65458 25.144918,56.917115 14.147771,57.387558 12.472305,54.160176 6.9462372,56.803137 1.1534954,59.57364 3.3811006,69.775042 4.8887976,74.35612 c 1.507697,4.581077 16.9051614,2.428974 16.9051614,2.428974"
         id="path36"
         sodipodi:nodetypes="cssssc" /></g><g
       inkscape:groupmode="layer"
       id="g26"
       inkscape:label="Grab Outline"
       inkscape:highlight-color="#f33535"
       style="opacity:1"><path
         style="fill:none;fill-opacity:1;fill-rule:nonzero;stroke:#000000;stroke-width:2.06375;stroke-linecap:round;stroke-linejoin:miter;stroke-miterlimit:4;stroke-dasharray:none;stroke-dashoffset:0;stroke-opacity:1"
         d="M 127.34239,42.447464 C 126.91884,49.470727 114.58496,59.26408 114.58496,59.26408"
         id="path22"
         sodipodi:nodetypes="cc" /><path
         style="fill:none;fill-opacity:1;fill-rule:nonzero;stroke:#000000;stroke-width:2.06375;stroke-linecap:round;stroke-linejoin:miter;stroke-miterlimit:4;stroke-dasharray:none;stroke-dashoffset:0;stroke-opacity:1"
         d="M 48.362275,0.23195335 C 44.548304,4.8137729 49.290087,18.092361 49.290087,18.092361"
         id="path23"
         sodipodi:nodetypes="cc" /><path
         style="fill:none;fill-opacity:1;fill-rule:nonzero;stroke:#000000;stroke-width:2.06375;stroke-linecap:round;stroke-linejoin:miter;stroke-miterlimit:4;stroke-dasharray:none;stroke-dashoffset:0;stroke-opacity:1"
         d="m 10.614573,37.994724 c 2.314397,4.500671 13.168888,7.555967 13.168888,7.555967"
         id="path24"
         sodipodi:nodetypes="cc" /><path
         style="fill:none;fill-opacity:1;fill-rule:nonzero;stroke:#000000;stroke-width:2.06375;stroke-linecap:round;stroke-linejoin:miter;stroke-miterlimit:4;stroke-dasharray:none;stroke-dashoffset:0;stroke-opacity:1"
         d="m 4.8887976,74.35612 c 1.507697,4.581077 16.9051614,2.428974 16.9051614,2.428974"
         id="path26"
         sodipodi:nodetypes="cc" /></g><g
       inkscape:label="Logo"
       inkscape:groupmode="layer"
       id="layer1"
       transform="matrix(0.76408059,0,0,0.76408059,15.605084,15.605084)"
       inkscape:highlight-color="#ffffff"><circle
         style="fill:#e62117;fill-opacity:1;stroke:none;stroke-width:0.320428"
         id="path1"
         cx="66.145828"
         cy="66.145828"
         r="66.145828" /><circle
         style="fill:none;fill-opacity:0;stroke:#ffffff;stroke-width:3.30729;stroke-dasharray:none;stroke-dashoffset:0;stroke-opacity:1"
         id="circle2"
         cx="66.145828"
         cy="66.145828"
         inkscape:label="circle2"
         r="32.977921" /><text
         xml:space="preserve"
         style="font-size:63.7794px;text-align:start;writing-mode:lr-tb;direction:ltr;text-anchor:start;fill:#ffffff;fill-opacity:1;stroke:none;stroke-width:0;stroke-linecap:butt;stroke-linejoin:miter;stroke-miterlimit:4;stroke-dasharray:none;stroke-dashoffset:0;stroke-opacity:0"
         x="37.116642"
         y="92.471489"
         id="text3"
         inkscape:label="text1"
         transform="scale(1.1010131,0.9082544)"><tspan
           sodipodi:role="line"
           id="tspan3"
           style="fill:#ffffff;fill-opacity:1;stroke:none;stroke-width:0;stroke-dasharray:none;stroke-opacity:0"
           x="37.116642"
           y="92.471489">♫</tspan></text></g><g
       inkscape:groupmode="layer"
       id="g41"
       inkscape:label="Grab Fill"
       inkscape:highlight-color="#f33535"
       style="display:inline;fill:#ffffff;fill-opacity:1;stroke:none;stroke-width:1.00012495;stroke-dasharray:none;stroke-opacity:1"><path
         style="fill:#ffffff;fill-opacity:1;fill-rule:nonzero;stroke:none;stroke-width:1.00012;stroke-linecap:round;stroke-linejoin:miter;stroke-miterlimit:4;stroke-dasharray:none;stroke-dashoffset:0;stroke-opacity:1"
         d="m 117.13644,44.99895 c 0,0 -6.03059,8.577763 -10.66985,9.04618 -5.83553,0.589202 -13.227877,-3.028122 -15.424898,-8.466295 -1.758838,-4.353562 0.924265,-10.065272 4.175159,-13.453295 3.762326,-3.921029 10.008259,-4.511168 15.356969,-5.470802 2.45777,-0.440961 5.31696,-1.325342 7.49044,-0.09608"
         id="path37"
         sodipodi:nodetypes="caaaac" /><path
         style="fill:#ffffff;fill-opacity:1;fill-rule:nonzero;stroke:none;stroke-width:1.00012;stroke-linecap:round;stroke-linejoin:miter;stroke-miterlimit:4;stroke-dasharray:none;stroke-dashoffset:0;stroke-opacity:1"
         d="m 48.47825,11.365714 c 0,0 1.919314,18.947763 9.090807,23.036148 4.9942,2.847136 13.67808,1.945911 17.029672,-2.724747 3.820278,-5.323801 -1.771553,-13.005279 -3.273075,-19.383587"
         id="path38"
         sodipodi:nodetypes="caac" /><path
         style="fill:#ffffff;fill-opacity:1;fill-rule:nonzero;stroke:none;stroke-width:1.00012;stroke-linecap:round;stroke-linejoin:miter;stroke-miterlimit:4;stroke-dasharray:none;stroke-dashoffset:0;stroke-opacity:1"
         d="m 21.339708,38.73621 c 0,0 4.038556,1.642144 6.098724,2.351087 5.367611,1.847097 10.884394,6.668487 16.29443,4.949615 4.083536,-1.297418 8.259498,-5.881164 7.887414,-10.149666 -0.397013,-4.554489 -6.255739,-6.836092 -10.162735,-9.210197 -2.937426,-1.784941 -6.465939,-2.336881 -9.665862,-3.591862"
         id="path39"
         sodipodi:nodetypes="caaaac" /><path
         style="fill:#ffffff;fill-opacity:1;fill-rule:nonzero;stroke:none;stroke-width:1.00012495;stroke-linecap:round;stroke-linejoin:miter;stroke-miterlimit:4;stroke-dasharray:none;stroke-dashoffset:0;stroke-opacity:1"
         d="m 14.008451,100.02476 c -0.580305,4.15812 3.000794,9.18078 6.994984,10.47428 5.133617,1.66251 10.821348,-2.4488 15.17546,-5.63622 3.222863,-2.35929 7.140842,-5.459491 7.371054,-9.446985 0.177954,-3.082333 -2.003075,-6.64489 -4.819569,-7.909726 -3.927665,-1.763842 -8.817656,0.462706 -12.709394,2.304463 -4.750856,2.248333 -11.28605,5.00863 -12.012535,10.214188 z"
         id="path40"
         sodipodi:nodetypes="aaaaaaa" /><path
         style="fill:#ffffff;fill-opacity:1;fill-rule:nonzero;stroke:none;stroke-width:1.00012;stroke-linecap:round;stroke-linejoin:miter;stroke-miterlimit:4;stroke-dasharray:none;stroke-dashoffset:0;stroke-opacity:1"
         d="m 14.574971,74.887672 c 0,0 4.377266,-1.264089 6.870765,-1.612018 2.493498,-0.34793 11.155681,3.886959 14.685533,3.705425 8.444767,-0.434298 12.842694,-8.537114 6.043737,-17.689564 C 40.66731,57.261923 31.281972,56.65458 25.144918,56.917115 14.147771,57.387558 12.472305,54.160176 6.9462372,56.803137"
         id="path41"
         sodipodi:nodetypes="cssssc" /></g><g
       inkscape:groupmode="layer"
       id="g31"
       inkscape:label="Grab Outline"
       inkscape:highlight-color="#f33535"
       style="opacity:1;fill:none;fill-opacity:1;stroke:#000000;stroke-opacity:1;paint-order:normal;stroke-width:2.0637499;stroke-dasharray:none"><path
         style="fill:none;fill-opacity:1;fill-rule:nonzero;stroke:#000000;stroke-width:2.0637499;stroke-linecap:round;stroke-linejoin:miter;stroke-miterlimit:4;stroke-dasharray:none;stroke-dashoffset:0;stroke-opacity:1;paint-order:normal"
         d="m 117.13644,44.99895 c 0,0 -6.03059,8.577763 -10.66985,9.04618 -5.83553,0.589202 -13.227877,-3.028122 -15.424898,-8.466295 -1.758838,-4.353562 0.924265,-10.065272 4.175159,-13.453295 3.762326,-3.921029 10.008259,-4.511168 15.356969,-5.470802 2.45777,-0.440961 5.31696,-1.325342 7.49044,-0.09608 5.33846,3.019293 9.64733,9.766796 9.27813,15.888806"
         id="path27"
         sodipodi:nodetypes="caaaaac" /><path
         style="fill:none;fill-opacity:1;fill-rule:nonzero;stroke:#000000;stroke-width:2.0637499;stroke-linecap:round;stroke-linejoin:miter;stroke-miterlimit:4;stroke-dasharray:none;stroke-dashoffset:0;stroke-opacity:1;paint-order:normal"
         d="m 48.47825,11.365714 c 0,0 1.919314,18.947763 9.090807,23.036148 4.9942,2.847136 13.67808,1.945911 17.029672,-2.724747 C 78.419007,26.353314 72.827176,18.671836 71.325654,12.293528 70.168297,7.3771968 71.163691,0.53295727 66.918543,-2.2035568 61.675087,-5.5836018 52.353446,-4.5627406 48.362275,0.23195335"
         id="path28"
         sodipodi:nodetypes="caaaac" /><path
         style="fill:none;fill-opacity:1;fill-rule:nonzero;stroke:#000000;stroke-width:2.0637499;stroke-linecap:round;stroke-linejoin:miter;stroke-miterlimit:4;stroke-dasharray:none;stroke-dashoffset:0;stroke-opacity:1;paint-order:normal"
         d="m 21.339708,38.73621 c 0,0 4.038556,1.642144 6.098724,2.351087 5.367611,1.847097 10.884394,6.668487 16.29443,4.949615 4.083536,-1.297418 8.259498,-5.881164 7.887414,-10.149666 -0.397013,-4.554489 -6.255739,-6.836092 -10.162735,-9.210197 -2.937426,-1.784941 -6.465939,-2.336881 -9.665862,-3.591862 -3.842129,-1.506848 -7.32531,-5.000115 -11.443307,-4.726904 -3.166752,0.210101 -6.521248,2.099345 -8.242587,4.765701 -2.7019823,4.185375 -3.7694353,10.440416 -1.491212,14.87074"
         id="path29"
         sodipodi:nodetypes="caaaaaaac" /><path
         style="fill:none;fill-opacity:1;fill-rule:nonzero;stroke:#000000;stroke-width:2.0637499;stroke-linecap:round;stroke-linejoin:miter;stroke-miterlimit:4;stroke-dasharray:none;stroke-dashoffset:0;stroke-opacity:1;paint-order:normal"
         d="m 14.008451,100.02476 c -0.580305,4.15812 3.000794,9.18078 6.994984,10.47428 5.133617,1.66251 10.821348,-2.4488 15.17546,-5.63622 3.222863,-2.35929 7.140842,-5.459491 7.371054,-9.446985 0.177954,-3.082333 -2.003075,-6.64489 -4.819569,-7.909726 -3.927665,-1.763842 -8.817656,0.462706 -12.709394,2.304463 -4.750856,2.248333 -11.28605,5.00863 -12.012535,10.214188 z"
         id="path30"
         sodipodi:nodetypes="aaaaaaa" /><path
         style="fill:none;fill-opacity:1;fill-rule:nonzero;stroke:#000000;stroke-width:2.0637499;stroke-linecap:round;stroke-linejoin:miter;stroke-miterlimit:4;stroke-dasharray:none;stroke-dashoffset:0;stroke-opacity:1;paint-order:normal"
         d="m 14.574971,74.887672 c 0,0 4.377266,-1.264089 6.870765,-1.612018 2.493498,-0.34793 11.155681,3.886959 14.685533,3.705425 8.444767,-0.434298 12.842694,-8.537114 6.043737,-17.689564 C 40.66731,57.261923 31.281972,56.65458 25.144918,56.917115 14.147771,57.387558 12.472305,54.160176 6.9462372,56.803137 1.1534954,59.57364 3.3811006,69.775042 4.8887976,74.35612"
         id="path31"
         sodipodi:nodetypes="csssssc" /></g></g></svg>
